<svg xmlns="http://www.w3.org/2000/svg" viewBox="0 0 600 150" width="600" height="150" xmlns:xlink="http://www.w3.org/1999/xlink">

<g id="icon-safeshops" transform="translate(100 100.612)">
<circle cx="14.509" cy="15.046" r="14.233" fill="#E2E3E4"/><ellipse cx="15.729" cy="15.046" fill="#3A383A" rx="12.606" ry="12.606"/><ellipse cx="16.135" cy="15.046" fill="#F7921E" rx="7.32" ry="7.32"/><path fill="#F7921E" d="M34.84 18.3c-.405 0-.812.406-1.625.406-1.627 0-2.847-1.22-2.847-3.253 0-2.033 1.22-3.253 3.253-3.253.815 0 1.22 0 1.628.406v.814c-.407 0-.813-.407-1.22-.407-1.627 0-2.44.813-2.44 2.44 0 1.626.813 2.44 2.44 2.44.407 0 .813 0 1.22-.407l-.407.813zm4.068-2.847h-2.44v2.033h2.847v.813H36.06v-6.1h3.255v.813h-2.44v2.033h2.44v.407h-.407zm1.626-3.253h1.627c.814 0 1.22 0 1.628.406.406.407.406.814.406 1.22 0 .814-.406 1.22-1.22 1.627.407 0 .814.407.814 1.22s.406 1.626.406 1.626h-.813s-.406-.814-.406-1.627c0-.813-.406-1.22-1.22-1.22h-.813V18.3h-.812l.406-6.1zm.407 2.846h.814c.814 0 1.22-.406 1.22-1.22 0-.813-.406-1.22-1.22-1.22h-.813v2.44zm5.694-2.033H44.6V12.2h4.474v.813H47.04V18.3h-.812v-5.287h.406zM50.7 12.2v6.1h-.812v-6.1h.813zm1.22 0h3.254v.813h-2.44v2.033h2.44v.814h-2.44v2.846h-.813V12.2zm5.287 0v6.1h-.813v-6.1h.813zm4.474 3.253h-2.44v2.033h2.847v.813h-3.253v-6.1h3.253v.813h-2.44v2.033h2.44v.407h-.406zM62.9 12.2h1.627c1.22 0 2.033.406 2.44.813.407.407.813 1.22.813 2.033 0 .814-.406 1.627-.813 2.44-.407.407-1.627.813-2.847.813h-1.626l.406-6.1zm.814 5.286h.813c1.627 0 2.44-.813 2.44-2.44 0-1.626-.813-2.44-2.44-2.44h-.813v4.88z"/><path fill="#000" d="M30.368 23.993v-4.067h.407v1.627c0-.407.406-.407.813-.407.813 0 1.22.407 1.22 1.22s-.407 1.627-1.22 1.627c-.407 0-.813 0-.813-.407l-.407.407zm.407-.814c0 .406.406.813.813.813.407 0 .813-.407.813-1.22 0-.407-.405-.814-.812-.814-.407 0-.813.406-.813.406v.813zm2.846-2.034l.408 1.627.407-1.627h.406l-.812 2.033c-.407.813-.407 1.626-.813 1.626.813.407.406.407.406.407v-.407s.408 0 .408-.407l.407-.407-.814-2.44v-.407zm3.66 2.44c.408 0 .408.407.815.407.406 0 .813-.407.813-.814s-.407-.407-.813-.814c-.407-.407-.814-.407-.814-1.22 0-.407.408-.813 1.22-.813h.815v.406H38.5c-.405 0-.812.406-.812.406 0 .407.407.407.813.813.815.406.815.406.815 1.22 0 .406-.407 1.22-1.22 1.22 0-.407-.814-.407-.814-.814zm4.474.407h-.813c-.406 0-.812-.407-.812-.814 0-.814.406-1.22 1.626-.814 0-.407 0-.813-.406-.813-.407 0-.407 0-.814.406v-.407c.407 0 .407-.407.814-.407.813 0 1.22.407 1.22 1.22V24.4l-.814-.407zm0-1.22c-.406 0-1.22 0-1.22.406s.407.406.407.406c.408 0 .408-.407.814-.407v-.407zm1.22 1.22v-2.44h-.406v-.407h.406c0-.407 0-.813.407-.813 0 0 .408-.407.814-.407h.407v.407h-.406c-.406 0-.406.406-.406.813h.813v.407h-.812v2.44h-.814zm2.034-1.22c0 .813.406.813.813.813h.814v.407h-.813c-.812 0-1.22-.407-1.22-1.22 0-.814.408-1.627 1.22-1.627.814 0 1.22.813 1.22 1.22v.407H45.01zm1.22-.407c0-.407 0-.813-.814-.813-.406 0-.813.406-.813.813h1.628zm1.22 1.22c.406 0 .406.407.813.407.408 0 .814-.407.814-.814s-.406-.407-.813-.814c-.406-.407-.812-.407-.812-1.22 0-.407.406-1.22 1.22-1.22h.813v.407h-.812c-.407 0-.814.406-.814.406 0 .406.407.406.814.813.813.406.813.406.813 1.22 0 .406-.406 1.22-1.22 1.22-.406 0-.812 0-.812-.407zm2.846-3.66h.407v1.627l.407-.407h.407c.407 0 .813.407.813 1.22v1.627h-.406v-1.627c0-.407 0-.813-.813-.813-.406 0-.406.406-.813.406v2.033h-.406v-4.067h.406zm5.287 2.847c0 .813-.813 1.626-1.22 1.626-.813 0-1.22-.407-1.22-1.22 0-.814.407-1.627 1.22-1.627.814-.407 1.22.406 1.22 1.22zm-2.033 0c0 .406.407 1.22.814 1.22s.814-.407.814-1.22c0-.407-.407-1.22-.813-1.22-.406 0-.813.813-.813 1.22zm2.847-.407v-.813h.407v.406c.407-.407.407-.407.814-.407.813 0 1.22.406 1.22 1.22 0 .813-.407 1.626-1.22 1.626-.407 0-.813 0-.813-.407v1.626h-.406v-3.254zm.407.407c0 .406 0 .406 0 0 0 .406.407.813.814.813s.813-.407.813-1.22c0-.407-.406-.813-.813-.813-.407 0-.813.406-.813.406v.813zm2.847.813h.814c.407 0 .407 0 .407-.407s0-.407-.406-.407-.813-.407-.813-.814.407-.814.814-.814h.814v.407h-.407c-.406 0-.406 0-.406.406s0 .406.407.406.814.407.814.813c0 .406-.406.813-1.22.813-.406 0-.813 0-.813-.407zm2.034 0c.407-.407.814-.407.814 0s-.407.407-.813 0c0 .407 0 .407 0 0zm1.22.407v-4.067h.407v1.627c0-.407.407-.407.813-.407.814 0 1.22.407 1.22 1.22s-.406 1.627-1.22 1.627c-.406 0-.813 0-.813-.407l-.407.407zm.407-.814c0 .406.407.813.813.813.407 0 .814-.407.814-1.22 0-.407-.407-.814-.814-.814-.406 0-.813.406-.813.406v.813zm3.253-.407c0 .813.407.813.814.813h.813v.407h-.813c-.814 0-1.22-.407-1.22-1.22 0-.814.406-1.627 1.22-1.627.813 0 1.22.813 1.22 1.22v.407H66.56zm1.22-.407c0-.407 0-.813-.813-.813-.407 0-.813.406-.813.813h1.626z"/><ellipse cx="22.642" cy="15.046" fill="#AA1E23" rx="4.473" ry="4.473"/>
</g>

<g id="icon-bpost">
<defs><linearGradient id="M" x1="-4.068%" x2="95.411%" y1="56.108%" y2="56.108%"><stop stop-color="#AC102D" offset="0%"/><stop stop-color="#EE163D" offset="100%"/></linearGradient><linearGradient id="N" x1="-14.831%" x2="84.758%" y1="67.691%" y2="67.691%"><stop stop-color="#AC102D" offset="0%"/><stop stop-color="#EE163D" offset="100%"/></linearGradient></defs><path fill="url(#M)" d="M36.24 0c-4.89 10.533-16.175 21.82-25.58 24.452-9.404 2.633-12.79-3.762-7.9-14.295l3.386-1.13c-3.385 7.15-1.128 11.287 4.89 9.406 6.02-1.88 13.543-9.028 16.93-16.176L36.24 0z" transform="translate(100 52.493)"/><path fill="url(#N)" d="M7.65 8.652c-1.504 3.762-.375 5.643 2.634 4.89 3.01-.752 6.772-4.514 8.653-8.275L7.65 8.652z" transform="translate(100 52.493)"/><path fill="#333" d="M132.855 77.697h-.752v1.88h-1.505v-6.77c.376-.376 1.13-.376 1.88-.376 1.882 0 2.634.753 2.634 2.634.377 1.505-.376 2.633-2.257 2.633zm0-4.138h-.752v3.01h.752c.753 0 1.505-.754 1.505-1.506-.376-.752-.752-1.505-1.505-1.505zm6.02 4.137c-1.882 0-2.634-1.128-2.634-2.633 0-1.505.753-2.633 2.634-2.633 1.88 0 2.633 1.13 2.633 2.634-.376 1.505-1.128 2.633-2.633 2.633zm0-4.138c-.753 0-1.13.375-1.13 1.504 0 1.128.377 1.505 1.13 1.505.752 0 1.128-.378 1.128-1.506 0-1.13-.376-1.505-1.13-1.505zm4.89 4.137c-.753 0-1.505 0-1.88-.376l.375-.75c.376 0 .752.375 1.505.375.376 0 .752-.376.752-.376 0-.378-.376-.378-.752-.754-.753-.752-1.88-.752-1.88-1.88 0-.753.75-1.505 2.256-1.505.753 0 1.505 0 1.882.377l-.377.752c-.376 0-.752-.377-1.128-.377-.376 0-.752.376-.752.376 0 .375.376.375.752.752.376.752 1.505.752 1.505 1.88 0 .753-.753 1.505-2.257 1.505zm4.89 0c-1.13 0-1.505-.376-1.505-1.505V73.56h-.752v-.753h.752v-1.13l1.505-.375v1.505h1.128v.752h-1.128v2.256c0 .376.376.376.752.376h.376v1.13c-.376.375-.752.375-1.128.375zm-18.81-2.633c0 1.505-1.128 2.633-2.632 2.633-.753 0-1.505 0-1.88-.376v-6.394h1.503v1.88h.753c1.127-.375 2.256.753 2.256 2.258zm-1.504 0c0-.752-.375-1.505-1.504-1.505h-.752v3.01h.752c.753 0 1.505-.378 1.505-1.506z"/>
</g>

<g id="icon-postnl" transform="translate(0 52)">
<defs><radialGradient id="R" cx="23.719%" cy="36.526%" r="98%" fx="23.719%" fy="36.526%"><stop stop-color="#FFC52A" offset="0%"/><stop stop-color="#F37023" offset="100%"/></radialGradient></defs><mask id="P" fill="#fff"><path d="M.5.2h28.9v30.1H.5z"/></mask><path fill="#A6ACB2" d="M6.1.7c3.3 0 8.5 2.1 12 4 3.9 2.1 9.3 6.5 9.3 9.5 0 3.2-5.6 7.4-9.3 9.5-3.4 1.9-8.5 4.1-11.9 4.1-.9 0-1.6-.2-2.2-.5-2.7-1.5-3.9-7.8-3.9-13 0-2.6.3-5.5.9-7.8.7-2.8 1.7-4.6 3-5.3C4.5.8 5.2.7 6.1.7" mask="url(#P)"/><mask id="S" fill="#fff"><path id="Q" d="M4.5 2C2.3 3.2 1 9.4 1 14.2c0 4.9 1.2 11 3.5 12.2 2.1 1.2 7.8-.6 13.2-3.5 4.6-2.5 8.8-6.3 8.8-8.7 0-2.3-4.3-6.2-8.8-8.7-4.2-2.3-8.8-3.8-11.5-3.8-.7 0-1.3.1-1.7.3"/></mask><path fill="url(#R)" d="M1 1.7h25.5v25.9H1" mask="url(#S)"/><mask id="U" fill="#fff"><path d="M.1.7h27.3v27H.1z"/></mask><path fill="#FFF" d="M20.5 16.5v-2.3c0-.5-.2-.7-.6-.7-.1 0-.3.1-.5.2s-.3.2-.4.2v2.7h-1V13c0-.1.1-.1.1-.1h.9v.3c.1-.1.3-.2.4-.2.3-.1.5-.2.7-.2.8 0 1.3.5 1.3 1.4v2.4l-.9-.1" mask="url(#U)"/><mask id="W" fill="#fff"><path d="M.1.7h27.3v27H.1z"/></mask><path fill="#FFF" d="M22.4 16.5v-5.6c.1 0 .6.4.8.6.1.2.2.4.2.6v4.5l-1-.1" mask="url(#W)"/><mask id="Y" fill="#fff"><path d="M.1.7h27.3v27H.1z"/></mask><path fill="#383793" d="M11.3 14.6c0 1.3-.9 2-2 2s-2-.6-2-2 .9-2 2-2c1.1.1 2 .7 2 2m-1.1 0c0-.7-.4-1-.8-1s-.9.3-.9 1 .4 1 .9 1c.4.1.8-.3.8-1" mask="url(#Y)"/><mask id="aa" fill="#fff"><path d="M.1.7h27.3v27H.1z"/></mask><path fill="#383793" d="M16.4 11.7c-.1 0-.7.3-.9.5-.1.1-.2.4-.2.6v2.4c0 1 .6 1.4 1.3 1.4.4 0 .6-.1.8-.1l.1-.1v-.7s-.3.1-.4.1c-.3 0-.5-.2-.5-.7v-1.4h.9V13c0-.1-.1-.1-.1-.1h-.8l-.2-1.2" mask="url(#aa)"/><mask id="ac" fill="#fff"><path d="M.1.7h27.3v27H.1z"/></mask><path fill="#383793" d="M3.2 12.9c0-.1.1-.1.1-.1h1.4c1.4 0 2.1.8 2.1 1.9 0 1.1-.8 1.9-2.2 1.9h-.4v1.8c-.1 0-.6-.4-.8-.6-.1-.1-.2-.4-.2-.6v-4.3m2.7 1.7c0-.5-.3-.9-1.1-.9h-.4v1.7h.4c.9.1 1.1-.5 1.1-.8" mask="url(#ac)"/><mask id="ae" fill="#fff"><path d="M.1.7h27.3v27H.1z"/></mask><path fill="#383793" d="M14.3 14.5c-.2-.2-.5-.2-.8-.3-.1 0-.2-.1-.3-.1-.3-.1-.6-.1-.6-.3 0-.2.2-.3.4-.3.3 0 .8.1 1.3.3h.1V13c0-.1 0-.1-.1-.1-.2-.1-.7-.2-1.2-.2s-.9.1-1.2.3c-.3.2-.4.5-.4.9 0 .8.7 1 1.3 1.1h.1c.3.1.6.1.6.4 0 .1 0 .1-.1.2s-.2.1-.5.1c-.4 0-1.2-.2-1.4-.3h-.1v.7c0 .1 0 .1.1.1 0 0 .7.2 1.3.2 1.1 0 1.7-.4 1.7-1.2.3-.2.1-.5-.2-.7" mask="url(#ae)"/><mask id="ag" fill="#fff"><path d="M.1.7h27.3v27H.1z"/></mask><path fill="#FFF" d="M7.6 11.8c-.1 0-.1 0-.1-.2v-.4c0-.1.1-.2.2-.2h3.2c.1 0 .2.1.2.2v.4c0 .1 0 .2-.1.2H7.6zm3-1.2c-.1 0-.1 0 0 0l-.1-.1c.1-.3.5-1.3.5-1.4 0-.1 0-.2-.1-.2l-.2-.1h-.1c-.1.2-.1.3-.2.5 0 0 0 .1-.1.1h-.4v-.1l.3-.9c0-.1.1-.1.2-.1h.1c.1 0 .3.1.4.1.1 0 .2.1.4.1.4.1.4.4.3.7 0 .2-.3.8-.4 1.1 0 .1-.1.1-.1.2s-.1.1-.1.1h-.4zm-1.5 0c-.1 0-.1-.1 0 0-.1-.1-.1-2-.1-2.3v-.1h.8v2.3s0 .1-.1.1h-.6zm-1.5 0c-.1 0-.1 0-.1-.1 0 0 0-.1-.1-.2-.1-.4-.3-1-.4-1.1-.1-.3-.1-.5.3-.7.1 0 .2-.1.4-.1.1 0 .3-.1.4-.1h.1c.1 0 .2.1.2.1l.3.9v.1h-.5c-.1 0-.1 0-.1-.1-.1-.2-.1-.3-.2-.5h-.1l-.2.1c-.1 0-.1.1-.1.2 0 0 .4 1 .5 1.4v.1h-.4zm1.7-2.7c-.2-.2-.4-.3-.5-.4v-.1c.1-.2.3-.3.4-.4.2.1.3.3.4.4v.1c.1.1-.1.2-.3.4z" mask="url(#ag)"/>
</g>

<g id="icon-bancontact"  transform="translate(500 4) scale(0.12)">
    <path d="M326.1 210.7c0 10.9-8.9 19.8-19.8 19.8H19.8C8.9 230.5 0 221.6 0 210.7V19.8C0 8.9 8.9 0 19.8 0h286.4C317.1 0 326 8.9 326 19.8v190.9z" fill="#fff" />
    <path fill="#004e91" d="M262 64.4h-78.2l-8 9-25.8 29.1-8 9H64.8l7.8-9.1 3.7-4.3 7.8-9.1H48.6c-6.5 0-11.8 5.5-11.8 12.1V126.7c0 6.7 5.3 12.1 11.8 12.1h136.2c6.5 0 15.4-4.1 19.7-9l20.6-23.4 36.9-42z" />
    <path d="M277.7 37.1c6.5 0 11.8 5.5 11.8 12.1v25.6c0 6.7-5.3 12.1-11.8 12.1h-35.5l7.9-9 3.9-4.5 7.9-9h-78.2l-41.7 47H64.3l55.7-63 2.1-2.4c4.4-4.9 13.3-9 19.8-9H277.7z" fill="#fd0" />
    <path fill="#004e91" class="st1" d="M289.5 192.4v-3.7c0-.5-.3-.8-1-.8h-2.4c-.7 0-1.2-.1-1.3-.4-.2-.3-.2-.9-.2-1.9v-14h3.9c.3 0 .5-.1.7-.3.2-.2.3-.4.3-.7v-3.9c0-.3-.1-.5-.3-.7-.2-.2-.4-.3-.7-.3h-3.9v-5.1c0-.3-.1-.5-.2-.6-.2-.1-.4-.2-.6-.2h-.1l-5.8 1c-.3.1-.5.2-.7.3-.2.2-.3.4-.3.6v3.9H273c-.3 0-.5.1-.7.3-.2.2-.3.4-.3.7v3.2c0 .3.1.5.3.6.2.2.4.3.7.4l3.9.6v14c0 1.7.2 3.1.5 4.2.4 1.1.9 1.9 1.5 2.5.7.6 1.5 1 2.5 1.2 1 .2 2.2.3 3.5.3.7 0 1.3 0 1.9-.1.5-.1 1.2-.2 1.9-.3.5 0 .8-.3.8-.8m-20.8-.5v-4.3c0-.3-.1-.5-.3-.6-.2-.1-.4-.2-.6-.2h-.1c-.9.1-1.8.2-2.6.2-.8.1-1.9.1-3.3.1-.5 0-1.1-.1-1.5-.3-.5-.2-.9-.5-1.3-.9s-.6-1-.8-1.7c-.2-.7-.3-1.6-.3-2.7v-4c0-1.1.1-2 .3-2.7.2-.7.5-1.3.8-1.7.4-.4.8-.7 1.3-.9.5-.2 1-.3 1.5-.3 1.4 0 2.5 0 3.3.1.8.1 1.7.1 2.6.2h.1c.3 0 .5-.1.6-.2.2-.1.3-.3.3-.6v-4.3c0-.4-.1-.6-.2-.7-.2-.1-.4-.3-.8-.4-.7-.2-1.5-.3-2.6-.5s-2.3-.2-3.8-.2c-3.4 0-6.1 1-8.2 3.1-2 2.1-3.1 5.1-3.1 9.1v4c0 3.9 1 7 3.1 9.1 2 2.1 4.8 3.1 8.2 3.1 1.4 0 2.7-.1 3.8-.2 1.1-.2 2-.3 2.6-.5.4-.1.6-.2.8-.4.2-.1.2-.4.2-.7m-31.3-5.1c-.6.3-1.2.5-1.9.7-.7.2-1.4.3-2.1.3-1 0-1.8-.1-2.3-.4s-.7-.9-.7-2v-.4c0-.6.1-1.1.2-1.5.1-.4.4-.8.7-1.1.3-.3.8-.5 1.3-.7.5-.1 1.2-.2 2.1-.2h2.7v5.3zm7.6-11.7c0-1.8-.3-3.3-.8-4.5-.5-1.2-1.3-2.2-2.2-3-1-.8-2.1-1.4-3.5-1.7-1.4-.4-3-.6-4.7-.6-1.6 0-3.2.1-4.7.3-1.5.2-2.7.4-3.6.7-.6.2-.9.5-.9 1.1v3.9c0 .3.1.5.2.7.2.1.4.2.6.2h.2c.4 0 .9-.1 1.4-.1.6 0 1.2-.1 1.9-.1s1.5-.1 2.3-.1h2.3c1.1 0 2 .2 2.6.6.6.4 1 1.3 1 2.7v1.7h-2.6c-4.1 0-7.2.6-9 1.9-1.9 1.3-2.8 3.4-2.8 6.2v.4c0 1.6.2 2.9.7 3.9.5 1.1 1.1 1.9 1.9 2.6.8.6 1.6 1.1 2.6 1.4 1 .3 2 .4 3.1.4 1.4 0 2.7-.2 3.7-.6 1-.4 2-.9 3-1.6v.8c0 .3.1.5.3.7.2.2.4.3.7.3h5.4c.3 0 .5-.1.7-.3.2-.2.3-.4.3-.7v-17.2zm-25.7 17.3v-3.7c0-.5-.3-.8-1-.8H216c-.7 0-1.2-.1-1.3-.4-.2-.3-.2-.9-.2-1.9v-14h3.9c.3 0 .5-.1.7-.3s.3-.4.3-.7v-3.9c0-.3-.1-.5-.3-.7s-.4-.3-.7-.3h-3.9v-5.1c0-.3-.1-.5-.2-.6-.2-.1-.4-.2-.6-.2h-.1l-5.8 1c-.3.1-.5.2-.7.3-.2.2-.3.4-.3.6v3.9h-3.9c-.3 0-.5.1-.7.3-.2.2-.3.4-.3.7v3.2c0 .3.1.5.3.6.2.2.4.3.7.4l3.9.6v14c0 1.7.2 3.1.5 4.2.4 1.1.9 1.9 1.5 2.5s1.5 1 2.5 1.2c1 .2 2.2.3 3.5.3.7 0 1.3 0 1.9-.1.5-.1 1.2-.2 1.9-.3.4 0 .7-.3.7-.8m-21-.1v-16c0-1.5-.1-2.9-.4-4.3-.2-1.3-.7-2.5-1.3-3.5-.6-1-1.5-1.8-2.6-2.3-1.1-.6-2.5-.9-4.3-.9-1.5 0-2.9.2-4.1.6-1.2.4-2.4 1-3.8 2v-1.2c0-.3-.1-.5-.3-.7-.2-.2-.4-.3-.7-.3h-5.4c-.3 0-.5.1-.7.3-.2.2-.3.4-.3.7v25.6c0 .3.1.5.3.7.2.2.4.3.7.3h5.8c.3 0 .5-.1.7-.3.2-.2.3-.4.3-.7v-18.9c.8-.4 1.6-.8 2.4-1.1.7-.3 1.5-.4 2.2-.4.7 0 1.3.1 1.8.2s.8.4 1.1.7c.3.4.4.8.5 1.4.1.6.1 1.3.1 2.1v16c0 .3.1.5.3.7.2.2.4.3.7.3h5.8c.3 0 .5-.1.7-.3.4-.2.5-.5.5-.7m-36.4-11.1c0 3.9-1.4 5.9-4.3 5.9-1.4 0-2.5-.5-3.2-1.5-.7-1-1.1-2.5-1.1-4.4v-3.4c0-2 .4-3.4 1.1-4.4.7-1 1.8-1.5 3.2-1.5 2.8 0 4.3 2 4.3 5.9v3.4zm7.8-3.4c0-1.9-.3-3.7-.8-5.2s-1.3-2.8-2.3-3.9c-1-1.1-2.3-1.9-3.8-2.5-1.5-.6-3.2-.9-5.2-.9s-3.7.3-5.2.9c-1.5.6-2.8 1.4-3.8 2.5s-1.8 2.4-2.3 3.9c-.5 1.5-.8 3.3-.8 5.2v3.4c0 1.9.3 3.7.8 5.2s1.3 2.8 2.3 3.9c1 1.1 2.3 1.9 3.8 2.5 1.5.6 3.2.9 5.2.9s3.7-.3 5.2-.9c1.5-.6 2.8-1.4 3.8-2.5s1.8-2.4 2.3-3.9c.5-1.5.8-3.3.8-5.2v-3.4zm-26.8 14.1v-4.3c0-.3-.1-.5-.3-.6-.2-.1-.4-.2-.7-.2h-.1c-.9.1-1.8.2-2.6.2s-1.9.1-3.3.1c-.5 0-1.1-.1-1.5-.3-.5-.2-.9-.5-1.3-.9s-.6-1-.8-1.7c-.2-.7-.3-1.6-.3-2.7v-4c0-1.1.1-2 .3-2.7.2-.7.5-1.3.8-1.7.4-.4.8-.7 1.3-.9.5-.2 1-.3 1.5-.3 1.4 0 2.5 0 3.3.1.8.1 1.7.1 2.6.2h.1c.3 0 .5-.1.7-.2.2-.1.3-.3.3-.6v-4.3c0-.4-.1-.6-.2-.7-.2-.1-.4-.3-.8-.4-.7-.2-1.5-.3-2.6-.5s-2.3-.2-3.8-.2c-3.4 0-6.1 1-8.2 3.1-2 2.1-3.1 5.1-3.1 9.1v4c0 3.9 1 7 3.1 9.1 2 2.1 4.8 3.1 8.2 3.1 1.4 0 2.7-.1 3.8-.2 1.1-.2 1.9-.3 2.6-.5.4-.1.6-.2.8-.4.2-.1.2-.4.2-.7m-23.6.4v-16c0-1.5-.1-2.9-.4-4.3-.2-1.3-.7-2.5-1.3-3.5-.6-1-1.5-1.8-2.6-2.3-1.1-.6-2.5-.9-4.3-.9-1.5 0-2.9.2-4.1.6-1.2.4-2.4 1-3.8 2v-1.2c0-.3-.1-.5-.3-.7-.2-.2-.4-.3-.7-.3h-5.4c-.3 0-.5.1-.7.3-.2.2-.3.4-.3.7v25.6c0 .3.1.5.3.7.2.2.4.3.7.3h5.8c.3 0 .5-.1.7-.3.2-.2.3-.4.3-.7v-18.9c.8-.4 1.6-.8 2.4-1.1.7-.3 1.5-.4 2.2-.4.7 0 1.3.1 1.8.2s.8.4 1.1.7c.3.4.4.8.5 1.4.1.6.1 1.3.1 2.1v16c0 .3.1.5.3.7.2.2.4.3.7.3h5.8c.3 0 .5-.1.7-.3.3-.2.5-.5.5-.7m-37.2-5.5c-.6.3-1.2.5-1.9.7-.7.2-1.4.3-2.1.3-1 0-1.8-.1-2.3-.4s-.7-.9-.7-2v-.4c0-.6.1-1.1.2-1.5.1-.4.4-.8.7-1.1.3-.3.8-.5 1.3-.7.5-.1 1.2-.2 2.1-.2h2.7v5.3zm7.7-11.7c0-1.8-.3-3.3-.8-4.5-.5-1.2-1.3-2.2-2.2-3-1-.8-2.1-1.4-3.5-1.7-1.4-.4-3-.6-4.7-.6-1.6 0-3.2.1-4.7.3-1.5.2-2.7.4-3.6.7-.6.2-.9.5-.9 1.1v3.9c0 .3.1.5.2.7.2.1.4.2.6.2h.2c.4 0 .9-.1 1.4-.1.6 0 1.2-.1 2-.1.7 0 1.5-.1 2.3-.1h2.3c1.1 0 2 .2 2.6.6.6.4 1 1.3 1 2.7v1.7h-2.6c-4.1 0-7.2.6-9 1.9s-2.8 3.4-2.8 6.2v.4c0 1.6.2 2.9.7 3.9.5 1.1 1.1 1.9 1.9 2.6.8.6 1.6 1.1 2.6 1.4 1 .3 2 .4 3.1.4 1.4 0 2.7-.2 3.7-.6s2-.9 3-1.6v.8c0 .3.1.5.3.7.2.2.4.3.7.3H89c.3 0 .5-.1.7-.3.2-.2.3-.4.3-.7v-17.2zm-34.4 7.6c0 1.3-.5 2.4-1.4 3.1-.9.7-2.7 1.1-5.1 1.1h-4v-9h5.4c1.9 0 3.3.4 4 1.3.7.9 1.1 1.9 1.1 3v.5zm-.2-14.3c0 .5-.1 1-.2 1.5-.2.5-.4.9-.8 1.2-.4.3-.9.6-1.5.8-.6.2-1.4.3-2.4.3h-5.4v-8.3h3.7c2.5 0 4.2.3 5.2.9 1 .6 1.5 1.6 1.5 2.9v.7zm8.2 13.8c0-1.7-.4-3.1-1.2-4.3-.8-1.2-1.8-2.2-3.1-2.8 1.3-.6 2.3-1.6 3-2.8.7-1.3 1.1-2.7 1.1-4.2v-.9c0-1.9-.4-3.5-1.1-4.8-.7-1.3-1.8-2.3-3.1-3.1-1.3-.8-2.9-1.3-4.8-1.7-1.9-.3-3.9-.5-6.2-.5h-2.4c-.8 0-1.6.1-2.4.1-.8 0-1.5.1-2.2.2-.7.1-1.2.1-1.6.2-.9.2-1.6.4-2 .9-.4.4-.6 1.2-.6 2.3V190c0 1.1.2 1.8.6 2.3.4.4 1.1.7 2 .9.5.1 1.1.2 1.7.2.7.1 1.4.1 2.2.2.8 0 1.6.1 2.4.1h2.5c2.1 0 4.1-.2 5.9-.5 1.8-.3 3.5-.9 4.8-1.7 1.4-.8 2.4-1.9 3.3-3.3.8-1.4 1.2-3.2 1.2-5.3v-.7z" />
    <path fill="none" d="M0 0h326v230.5H0z" />
</g>

<g id="icon-ecocheques" transform="translate(365 0) scale(0.055)">
    <path fill="#39B54A" d="M448.8 197.3v13c0 25.8 4.4 33.8 18.7 33.8 8.6 0 14.2-4 16.6-12.3 1-3.3 1.3-6 1.3-16.3H513c-.4 20-1.3 26.7-5.7 34-7 13-21 20-39.7 20-17 0-29.6-5.3-37-15.4-6.6-9.2-9.3-20-9.3-40v-44c0-23.3 2.7-33 12-42 8-7.7 19.5-12 33.4-12 15 0 27 4.8 34.7 13.7 8.3 9.5 11.3 20 11.3 43.3v24.3h-64zm36-32.3c0-17.5-5.2-24.6-18-24.6s-18 7-18 24.6v8h36v-8zM600.2 170v-3.8c0-17.2-5.6-25-17.8-25-14.2 0-18.7 8-18.7 34v35.5c0 14 1 20.4 3.6 25.5s8.3 8 15 8c12.3 0 18-8 18-25.8v-4h27.5v5.5c0 17.4-3 27.8-10.4 35.7-8 9-20 13.6-35 13.6-16.6 0-29.6-5.3-37-15.4-6.8-9.3-9.2-19.6-9.2-39.8v-42.7c0-20.2 2.4-30.8 9.2-40 7.4-10 20-15.4 37-15.4 15 0 27 4.6 35 13.4 7.4 8 10.4 18 10.4 35.3v5.3h-27.6zM739.7 215.4c0 23-2.7 33.2-11.6 42-8 7.8-19.5 12-33.4 12-14.2 0-25.8-4.2-33.8-12-8.6-8.8-11.6-19-11.6-42V170c0-23 3-33 11.6-42 8-7.7 19.6-12 33.8-12 14 0 25.5 4.3 33.5 12 9 9 11.7 19 11.7 42v45.4zm-62.8 1.8c0 18.7 5.2 27 17.4 27 12.5 0 17.8-8.3 17.8-27v-49c0-19-5.3-27-17.8-27-12.2 0-17.5 8.4-17.5 27v49z"/><path fill="#333" d="M827 170v-3.8c0-17.2-5.5-25-17.7-25-14.2 0-18.7 8-18.7 34v35.5c0 14 1 20.4 3.5 25.5s8.4 8 15.2 8c12.2 0 17.8-8 17.8-25.8v-4h27.6v5.5c0 17.4-3 27.8-10.4 35.7-8 9-20 13.6-35 13.6-16.6 0-29.6-5.3-37-15.4-7-9.3-9.3-19.6-9.3-39.8v-42.7c0-20.2 2.3-30.8 9-40 7.5-10 20.3-15.4 37.2-15.4 15 0 27 4.6 35 13.4 7.4 8 10.4 18 10.4 35.3v5.3H827zM904.3 138c12.8-14.8 23.7-21 36.8-21 16.4 0 24 11 24 34.4v115h-27.5v-108c0-13-2.7-17-10.7-17-7.4 0-15.7 5.2-22.5 14.7v110.4h-27.6V68.7h27.6V138zM1017 197.3v13c0 25.8 4.4 33.8 18.7 33.8 8.6 0 14.2-4 16.6-12.3 1-3.3 1.2-6 1.2-16.3h27.6c-.2 20-1 26.7-5.5 34-7 13-21 20-39.7 20-17 0-29.6-5.3-37-15.4-6.5-9.2-9.2-20-9.2-40v-44c0-23.3 2.7-33 12-42 8-7.7 19.5-12 33.4-12 15 0 27 4.8 34.7 13.7 8.3 9.5 11.3 20 11.3 43.3v24.3h-64zm36.2-32.3c0-17.5-5.3-24.6-18-24.6-13 0-18.2 7-18.2 24.6v8h36.2v-8zM1194.2 316.8h-27.6v-65c-12.2 11.7-22 16.7-32.6 16.7-10.7 0-19-5.3-23.7-15-4.4-10.2-6-20.6-6-43V175c0-22.4 1.6-32.8 6-43 4.7-9.7 13-15 23.7-15s20.5 5 32.6 16.6V119h27.6V317zm-27.6-168c-7-5-13-7.5-19.3-7.5-6 0-10.7 3-12.8 7.7-2.4 5-2.7 9-2.7 24.3V212c0 15.5.3 19.4 2.7 24.4 2 4.7 7 7.7 12.8 7.7 6.2 0 12-2 19.3-7.3v-88zM1308 266.4h-27.5v-19c-12.7 14.8-23.7 21-36.7 21-16.3 0-24-11-24-34.4V119h27.6v108c0 13 2.7 17.2 10.7 17.2 7.5 0 15.8-5.3 22.6-14.8V119h27.6v147.4zM1360 197.3v13c0 25.8 4.5 33.8 18.8 33.8 8.6 0 14.2-4 16.6-12.3 1-3.3 1.2-6 1.2-16.3h27.6c-.3 20-1.2 26.7-5.6 34-7 13-21 20-39.7 20-17 0-29.7-5.3-37-15.4-6.6-9.2-9.3-20-9.3-40v-44c0-23.3 2.7-33 12-42 8-7.7 19.5-12 33.4-12 15.2 0 27 4.8 34.8 13.7 8.3 9.5 11.3 20 11.3 43.3v24.3h-64zm36.2-32.3c0-17.5-5.3-24.6-18-24.6-13 0-18.2 7-18.2 24.6v8h36.2v-8zM1512.2 162.6c-5.6-15.4-12.2-21.3-22.8-21.3-8.6 0-14.5 5.3-14.5 13 0 8 4 12.2 24.8 23.4 16.6 9.2 24 14 30 20.2 6.4 6.7 10.3 16.8 10.3 27.8 0 26-18 43.6-45.2 43.6-25.2 0-41-13-50.4-41.5l25.8-9c6 18 13 25.2 24.6 25.2 9.2 0 15.7-6.2 15.7-14.8 0-8.3-4.7-13.6-20.7-22.2-20.2-11.3-25.8-15-32.3-22-6.8-7-10.7-17-10.7-27.8 0-24 18-41.2 43-41.2 23.4 0 38.5 11.3 47.7 35.6l-25.3 10.8z"/><path fill="#39B54A" d="M181.6 0C81.3 0 0 81.3 0 181.6c0 50.5 20.7 96.2 54 129 8-15.2 19-34.6 29.6-50C18.8 140.6 170.8 27 277.2 99.3c-5.4 8.8-30.5 38.3-18.7 91.4 15.8 71-59 118-114.2 97.2 0 0 25.8-93.7 91-161-91 67-132.8 171-146 210.7 27 16 58.5 25.5 92.3 25.5 100.3 0 181.6-81.3 181.6-181.6S282 0 181.6 0z"/>
</g>

<g id="icon-ideal">
<path fill="#010101" d="M303.5 18.3h4.4v7.3h-4.4v-7.3zm4.7-3.6c0 1.4-1.1 2.5-2.5 2.5s-2.5-1.1-2.5-2.5 1.1-2.5 2.5-2.5 2.5 1.1 2.5 2.5z"/><path fill="#010101" d="M316.3 4.8h-15.9v24.1h15.9c3.5-.1 6.2-.9 8.2-2.6 2.4-2 3.6-5.2 3.6-9.5 0-2-.3-3.9-.9-5.4-.6-1.5-1.5-2.8-2.6-3.8-2.2-1.8-5-2.8-8.3-2.8zm-.3 1.6c3.1 0 5.6.8 7.4 2.4 2 1.8 3 4.5 3 8 0 7-3.4 10.4-10.4 10.4h-14V6.3c1.4.1 13.4.1 14 .1z"/><path fill="#CC1B69" d="M315.5 25.7h-5.6V8.3h5.6-.2c4.7 0 9.7 1.9 9.7 8.7 0 7.2-5 8.6-9.7 8.6h.2v.1z"/><path fill="#FFF" d="M309 12.8h1.5c.4 0 .6 0 .8.1.2.1.5.2.6.4.2.2.3.4.4.7.1.3.1.6.1 1 0 .3 0 .6-.1.9-.1.3-.3.6-.4.7-.2.1-.3.3-.6.3-.2.1-.4.1-.7.1H309v-4.2zm.8.7v2.8h1.1c.1 0 .3-.1.3-.2s.2-.2.2-.4.1-.4.1-.8c0-.3 0-.6-.1-.7-.1-.2-.1-.3-.2-.4-.1-.1-.2-.2-.4-.2h-.7l-.3-.1z"/><path fill="#FFF" d="M308.8 12.7v4.4h1.7c.3 0 .6 0 .8-.1.3-.1.5-.2.6-.4.2-.2.4-.5.5-.8.1-.3.1-.6.1-.9 0-.4-.1-.7-.1-1-.1-.3-.2-.5-.4-.7-.2-.2-.4-.3-.7-.4-.2-.1-.5-.1-.8-.1h-1.7zm1.7.2c.3 0 .6 0 .8.1.2.1.4.2.6.4.2.2.3.4.4.6.1.3.1.6.1.9 0 .3 0 .6-.1.9-.1.3-.2.5-.4.7-.1.1-.3.2-.5.3-.2.1-.4.1-.7.1h-1.5V13c.1-.1 1.3-.1 1.3-.1z"/><path fill="#FFF" d="M309.7 13.4v3h1.2c.2 0 .3-.1.4-.2.1-.1.2-.2.3-.5.1-.2.1-.5.1-.8 0-.3 0-.6-.1-.8-.1-.2-.2-.3-.3-.5-.1-.1-.3-.2-.4-.2h-1.2zm.5.2h.7c.1 0 .3.1.3.2s.2.2.2.4c.1.2.1.4.1.7 0 .3 0 .6-.1.7-.1.2-.1.3-.2.4-.1.1-.2.1-.3.2h-1v-2.5c.1-.1.3-.1.3-.1zm3.2 3.4v-4.2h3.1v.7h-2.3v.9h2.1v.7h-2.1v1.1h2.3v.8h-3.1z"/><path fill="#FFF" d="M313.3 12.7v4.4h3.4v-.9h-2.3v-.9h2.1v-.9h-2.1v-.7h2.3v-.9l-3.4-.1zm3.1.2v.5h-2.3v1.1h2.1v.5h-2.1v1.4h2.3v.5h-2.9V13c.2-.1 2.7-.1 2.9-.1zM321.3 17h-.9l-.4-1h-1.7l-.3 1h-.9l1.6-4.2h.9l1.7 4.2zm-1.6-1.7l-.6-1.5-.6 1.5h1.2z"/><path fill="#FFF" d="M318.6 12.7l-1.7 4.4h1.1s.3-.8.3-.9h1.5c.1.1.4.9.4.9h1.2l-1.8-4.4h-1zm.9.2c.1.1 1.5 3.7 1.6 3.9h-.7c-.1-.1-.4-.9-.4-.9h-1.8s-.3.8-.3.9h-.6c.1-.3 1.5-3.8 1.5-3.9h.7z"/><path fill="#FFF" d="M318.4 15.4h1.5l-.7-2-.8 2zm.8-1.3c.1.3.3.9.4 1.1h-.8c0-.2.2-.8.4-1.1zM322 17v-4.1h.8v3.4h2.1v.7H322"/><path fill="#FFF" d="M321.9 12.7v4.4h3.2v-.9H323v-3.4h-1.1v-.1zm.8.2v3.4h2.1v.5h-2.7v-3.9h.6z"/>
</g>

<g id="icon-paypal" transform="translate(200 7)">
<mask id="ai" fill="#fff"><path d="M.9.8h64.4v15.6H.9z"/></mask><path fill="#00AEEF" d="M6.6 4.5H11c2.4 0 3.3 1.2 3.1 3-.2 2.9-2 4.5-4.3 4.5H8.6c-.3 0-.5.2-.6.8l-.5 3.3c0 .2-.2.3-.3.4H4.4c-.3 0-.4-.2-.3-.6L5.8 5.2c.1-.5.3-.7.8-.7" mask="url(#ai)"/><mask id="ak" fill="#fff"><path d="M.9.8h64.4v15.6H.9z"/></mask><path fill="#03428E" d="M25.7 4.3c1.5 0 2.9.8 2.7 2.8-.2 2.4-1.5 3.7-3.5 3.7h-1.7c-.3 0-.4.2-.4.6l-.3 2.2c-.1.3-.2.5-.5.5h-1.6c-.3 0-.4-.2-.3-.5l1.4-8.7c.1-.4.2-.6.5-.6h3.7zM23 8.9h1.3c.8 0 1.4-.6 1.4-1.6 0-.6-.4-1.1-1.1-1.1h-1.3L23 8.9zm9.8 4.5c.2-.1.3-.2.3 0l-.1.4c0 .2.1.3.3.3h1.5c.2 0 .4-.1.4-.5l.9-5.6c0-.3 0-.4-.2-.4h-1.6c-.1 0-.2.1-.3.3l-.1.4c0 .2-.1.2-.2 0-.3-.6-1-.9-1.9-.9-2.3.1-3.8 1.7-3.9 3.9-.1 1.7 1.1 3 2.7 3 1.1 0 1.6-.3 2.2-.9zm-1.2-.8c-1 0-1.6-.8-1.5-1.7.1-.9 1-1.7 2-1.7s1.6.8 1.5 1.7c-.1.9-1 1.7-2 1.7zm7.3-5h-1.5c-.3 0-.4.2-.3.5l1.8 5.4-1.8 2.6c-.2.2 0 .4.2.4H39c.3 0 .4-.1.5-.2l5.6-8.1c.2-.3.1-.5-.2-.5h-1.6c-.3 0-.4.1-.5.3l-2.4 3.4-1-3.4c0-.3-.2-.4-.5-.4z" mask="url(#ak)"/><mask id="am" fill="#fff"><path  d="M.9.8h64.4v15.6H.9z"/></mask><path fill="#00AEEF" d="M51 4.3c1.5 0 2.9.8 2.7 2.8-.2 2.4-1.5 3.7-3.5 3.7h-1.8c-.3 0-.4.2-.4.6l-.3 2.2c-.1.3-.2.5-.5.5h-1.6c-.3 0-.4-.2-.3-.5l1.4-8.7c.1-.4.2-.6.5-.6H51zm-2.7 4.6h1.3c.8 0 1.4-.6 1.4-1.6 0-.6-.4-1.1-1.1-1.1h-1.3l-.3 2.7zm9.8 4.5c.2-.1.3-.2.3 0l-.1.4c0 .2.1.3.3.3h1.5c.2 0 .4-.1.4-.5l.9-5.6c0-.3 0-.4-.2-.4h-1.6c-.1 0-.2.1-.3.3l-.1.4c0 .2-.1.2-.2 0-.3-.6-1-.9-1.9-.9-2.3.1-3.8 1.7-3.9 3.9-.1 1.7 1.1 3 2.7 3 1.1 0 1.7-.3 2.2-.9zm-1.2-.8c-1 0-1.6-.8-1.5-1.7.1-.9 1-1.7 2-1.7s1.6.8 1.5 1.7c-.1.9-1 1.7-2 1.7zm6.7 1.5H62c-.1 0-.2-.1-.2-.2l1.5-9.4c0-.1.2-.2.3-.2h1.7c.1 0 .2.1.2.2L64 13.9c-.1.1-.2.2-.4.2z" mask="url(#am)"/><mask id="ao" fill="#fff"><path d="M.9.8h64.4v15.6H.9z"/></mask><path fill="#03428E" d="M3.8.8h4.4c1.2 0 2.7 0 3.7.9.7.6 1 1.5.9 2.5-.3 3.4-2.3 5.2-5 5.2H5.6c-.4 0-.6.2-.7.9l-.6 3.9c0 .3-.2.4-.3.4H1.3c-.3 0-.4-.2-.3-.7L3 1.5c0-.5.3-.7.8-.7" mask="url(#ao)"/><mask id="aq" fill="#fff"><path d="M.9.8h64.4v15.6H.9z"/></mask><path fill="#0E3178" d="M5 10l.8-4.9c.1-.4.3-.6.8-.6H11c.7 0 1.3.1 1.8.3-.4 3-2.4 4.7-4.9 4.7H5.7c-.3 0-.5.1-.7.5" mask="url(#aq)"/>
</g>

<g id="icon-visa">
<path fill="#0058A0" d="M120.3 24.1l2.9-16.8h4.5l-2.8 16.8h-4.6zm21.2-16.4c-.9-.3-2.3-.7-4.1-.7-4.5 0-7.7 2.3-7.7 5.5 0 2.4 2.3 3.8 4 4.6 1.8.8 2.4 1.3 2.4 2.1 0 1.1-1.4 1.6-2.7 1.6-1.8 0-2.8-.3-4.3-.9l-.6-.3-.6 3.8c1.1.5 3 .9 5.1.9 4.8 0 7.9-2.2 8-5.7 0-1.9-1.2-3.4-3.8-4.6-1.6-.8-2.6-1.3-2.6-2.1 0-.7.8-1.4 2.6-1.4 1.5 0 2.6.3 3.4.6l.4.2.5-3.6zm11.7-.4h-3.5c-1.1 0-1.9.3-2.4 1.4l-6.8 15.4h4.8s.8-2.1 1-2.5h5.9c.1.6.6 2.5.6 2.5h4.2l-3.8-16.8zm-5.7 10.8c.4-1 1.8-4.7 1.8-4.7s.4-1 .6-1.6l.3 1.4s.9 4 1.1 4.8h-3.8v.1zm-31-10.8L112 18.7l-.5-2.3c-.8-2.7-3.4-5.6-6.3-7l4.1 14.7h4.8l7.2-16.7h-4.8v-.1z"/><path fill="#FAA61A" d="M107.9 7.3h-7.4l-.1.4c5.7 1.4 9.5 4.7 11.1 8.8l-1.6-7.7c-.2-1.1-1-1.5-2-1.5z"/>
</g>

<g id="icon-mastercard" transform="scale(0.3)">
<path fill="none" d="M0 0h146.8v120.41H0z"/><path fill="#231f20" d="M36.35 105.26v-6a3.56 3.56 0 0 0-3.76-3.8 3.7 3.7 0 0 0-3.36 1.7 3.51 3.51 0 0 0-3.16-1.7 3.16 3.16 0 0 0-2.8 1.42V95.7h-2.08v9.56h2.1V100a2.24 2.24 0 0 1 2.34-2.54c1.38 0 2.08.9 2.08 2.52v5.32h2.1V100a2.25 2.25 0 0 1 2.34-2.54c1.42 0 2.1.9 2.1 2.52v5.32zm31.07-9.56H64v-2.9h-2.1v2.9H60v1.9h1.94v4.4c0 2.22.86 3.54 3.32 3.54a4.88 4.88 0 0 0 2.6-.74l-.6-1.78a3.84 3.84 0 0 1-1.84.54c-1 0-1.38-.64-1.38-1.6V97.6h3.4zm17.74-.24a2.82 2.82 0 0 0-2.52 1.4V95.7h-2.06v9.56h2.08V99.9c0-1.58.68-2.46 2-2.46a3.39 3.39 0 0 1 1.3.24l.64-2a4.45 4.45 0 0 0-1.48-.26zm-26.82 1a7.15 7.15 0 0 0-3.9-1c-2.42 0-4 1.16-4 3.06 0 1.56 1.16 2.52 3.3 2.82l1 .14c1.14.16 1.68.46 1.68 1 0 .74-.76 1.16-2.18 1.16a5.09 5.09 0 0 1-3.18-1l-1 1.62a6.9 6.9 0 0 0 4.14 1.24c2.76 0 4.36-1.3 4.36-3.12s-1.26-2.56-3.34-2.86l-1-.14c-.9-.12-1.62-.3-1.62-.94s.68-1.12 1.82-1.12a6.16 6.16 0 0 1 3 .82zm55.71-1a2.82 2.82 0 0 0-2.52 1.4V95.7h-2.06v9.56h2.08V99.9c0-1.58.68-2.46 2-2.46a3.39 3.39 0 0 1 1.3.24l.64-2a4.45 4.45 0 0 0-1.48-.26zm-26.8 5a4.83 4.83 0 0 0 5.1 5 5 5 0 0 0 3.44-1.14l-1-1.68a4.2 4.2 0 0 1-2.5.86 3.07 3.07 0 0 1 0-6.12 4.2 4.2 0 0 1 2.5.86l1-1.68a5 5 0 0 0-3.44-1.14 4.83 4.83 0 0 0-5.1 5zm19.48 0V95.7h-2.08v1.16a3.63 3.63 0 0 0-3-1.4 5 5 0 0 0 0 10 3.63 3.63 0 0 0 3-1.4v1.16h2.08zm-7.74 0a2.89 2.89 0 1 1 2.9 3.06 2.87 2.87 0 0 1-2.9-3.06zm-25.1-5a5 5 0 0 0 .14 10 5.81 5.81 0 0 0 3.97-1.3l-1-1.54a4.55 4.55 0 0 1-2.78 1 2.65 2.65 0 0 1-2.86-2.34h7.1v-.8c0-3-1.86-5-4.54-5zm0 1.86a2.37 2.37 0 0 1 2.42 2.32h-5a2.46 2.46 0 0 1 2.54-2.32zm52.11 3.16v-8.62h-2v5a3.63 3.63 0 0 0-3-1.4 5 5 0 0 0 0 10 3.63 3.63 0 0 0 3-1.4v1.16h2zm3.47 3.39a1 1 0 0 1 .38.07 1 1 0 0 1 .31.2 1 1 0 0 1 .21.3.93.93 0 0 1 0 .74 1 1 0 0 1-.21.3 1 1 0 0 1-.31.2.94.94 0 0 1-.38.08 1 1 0 0 1-.9-.58.94.94 0 0 1 0-.74 1 1 0 0 1 .21-.3 1 1 0 0 1 .31-.2 1 1 0 0 1 .41-.07zm0 1.69a.71.71 0 0 0 .29-.06.75.75 0 0 0 .23-.16.74.74 0 0 0 0-1 .74.74 0 0 0-.23-.16.72.72 0 0 0-.29-.06.75.75 0 0 0-.29.06.73.73 0 0 0-.24.16.74.74 0 0 0 0 1 .74.74 0 0 0 .24.16.74.74 0 0 0 .32.06zm.06-1.19a.4.4 0 0 1 .26.08.25.25 0 0 1 .09.21.24.24 0 0 1-.07.18.35.35 0 0 1-.21.09l.29.33h-.23l-.27-.33h-.09v.33h-.19v-.88zm-.22.17v.24h.22a.21.21 0 0 0 .12 0 .1.1 0 0 0 0-.09.1.1 0 0 0 0-.09.21.21 0 0 0-.12 0zm-11-4.06a2.89 2.89 0 1 1 2.9 3.06 2.87 2.87 0 0 1-2.9-3.06zm-70.23 0V95.7H46v1.16a3.63 3.63 0 0 0-3-1.4 5 5 0 0 0 0 10 3.63 3.63 0 0 0 3-1.4v1.16h2.08zm-7.74 0a2.89 2.89 0 1 1 2.9 3.06 2.87 2.87 0 0 1-2.92-3.06z"/><path fill="#ff5f00" d="M57.65 22.85h31.5v56.61h-31.5z"/><path fill="#eb001b" d="M59.65 51.16A35.94 35.94 0 0 1 73.4 22.85a36 36 0 1 0 0 56.61 35.94 35.94 0 0 1-13.75-28.3z"/><path fill="#f79e1b" d="M131.65 51.16a36 36 0 0 1-58.25 28.3 36 36 0 0 0 0-56.61 36 36 0 0 1 58.25 28.3zM128.21 73.46V72.3h.47v-.24h-1.19v.24h.51v1.16zm2.31 0v-1.4h-.36l-.42 1-.42-1H129v1.4h.26v-1.05l.39.91h.27l.39-.91v1.06z"/>
</g>

<g id="icon-thuiswinkel" transform="translate(0 100) scale(0.088)" fill="none" fill-rule="evenodd">
<g transform="translate(0 231)"><mask id="b" fill="#fff"><path d="M.06 45V.2h20.52V45H.06z"/></mask><path fill="#1E1E1E" d="M3.92.2h9.52v7.7h6.86v7.85h-6.86V29.9c0 5.45 1.68 6.57 5.4 6.57.62 0 .97 0 1.74-.07v8.26s-1.47.35-4.13.35c-8.75 0-12.6-4.9-12.6-14.8V15.8H0V7.9h3.92V.2" mask="url(#b)"/></g><path fill="#1E1E1E" d="M59.36 254.38v21.14h-9.6v-22.26c0-4.06-2.8-6.58-6.08-6.58-4.06 0-6.65 2.94-6.65 6.86v21.98h-9.66V224.9h9.66v18.28c1.54-2.53 4.9-5.2 9.66-5.2 10.5.02 12.6 8.63 12.6 16.4m8.1 5.67V238.9h9.63v22.27c0 4.06 2.8 6.58 6.1 6.58 4 0 6.5-2.94 6.5-6.86v-22h9.66v36.6h-9.4v-4.3c-1.54 2.5-5.04 5.2-9.8 5.2-10.43 0-12.67-8.6-12.67-16.4m40.25 15.5h9.6v-36.6h-9.7v36.6zm4.7-51c3.2 0 5.63 2.4 5.63 5.5 0 3.15-2.44 5.53-5.66 5.53-3.16 0-5.6-2.35-5.6-5.5s2.44-5.53 5.6-5.53zm11.1 45.1l5.67-5.08c1.8 2.1 4.25 4 8.4 4 2.7 0 4.46-1.2 4.46-3.3 0-5.6-17.3-3.45-17.3-16.48 0-6.8 5.83-10.85 13.3-10.85 6.95 0 10.8 3.6 12.55 6.5l-6.34 4.73c-1.1-1.4-3.15-3.5-6.6-3.5-2.22 0-3.76 1.13-3.76 2.95 0 5.8 17.34 3 17.34 16.1 0 7.14-6.15 11.62-14.06 11.62-7.2 0-11.7-3.64-13.66-6.8M182.7 252l-6.8 23.46h-10.7l-10.92-36.6h10.5l6.44 25.96 7-25.97h9.1l6.9 26 6.5-25.98h10.5l-10.97 36.6H189.5l-6.73-23.44m33.8 23.4h9.67v-36.6h-9.66v36.6zm4.77-50.96c3.22 0 5.67 2.38 5.67 5.53 0 3.15-2.4 5.53-5.6 5.53-3.1 0-5.6-2.34-5.6-5.5s2.5-5.52 5.6-5.52zm45.5 29.83v21.14h-9.66V253.2c0-4.07-2.8-6.6-6.1-6.6-3.98 0-6.5 2.95-6.5 6.87v21.98h-9.66v-36.6h9.45v4.27c1.54-2.53 5.04-5.2 9.8-5.2 10.43.02 12.67 8.63 12.67 16.4m8.33-29.48h9.66v29.4l11.76-15.4h10.8l-12.9 16.6 13.8 20H297l-12.24-18.9v18.9h-9.66v-50.6m62.25 28.43c-.2-4.5-3.44-7.43-7.85-7.43-4.54 0-7.5 3.23-7.9 7.43h15.75zM329.4 238c11.34 0 17.78 7.56 17.78 19.53 0 .7 0 1.4-.07 2.1h-25.7c.2 4.9 4.17 8.4 9.56 8.4 4.92 0 7.8-2.94 8.84-4.48l6.36 4.83c-1.4 2.6-6.3 8.05-15.4 8.05-11.75 0-19.24-8.12-19.24-19.1 0-11.07 7.5-19.33 17.9-19.33zm24.22 37.52h9.66V224.9h-9.66m-287.3 88.77l-9.02 26.85h-5.66l-11.37-33.8h5.55l8.84 27.82s.06-.13 9.1-27.82h5.07c8.96 27.7 9.02 27.82 9.02 27.82l8.9-27.82h5.6l-11.45 33.8h-5.6l-8.97-26.85m43.44 23.4c4.94 0 8.4-2.92 8.4-7.02 0-4.22-3.4-6.95-8.46-6.95-5.1 0-8.4 3-8.4 6.95 0 3.9 3.3 7.02 8.5 7.02zm-.7-18.07c4.28 0 7.53 1.63 8.9 3.06v-4.16c0-4.75-3.2-7.48-8.2-7.48-4.16 0-7.54 1.5-9.94 2.93l-2.08-3.77c2.27-1.43 6.76-3.7 12.48-3.7 9.23 0 12.87 5.13 12.87 12.34v22.3h-4.42l-.6-2.86c-1.74 2-4.6 3.7-9.15 3.7-7.4 0-12.87-4.68-12.87-11.24 0-6.44 5.4-11.12 13-11.12zm34.83 18.07c4.94 0 8.38-2.92 8.38-7.02 0-4.22-3.38-6.95-8.45-6.95-5.13 0-8.45 3-8.45 6.95 0 3.9 3.32 7.02 8.52 7.02zm-.72-18.07c4.3 0 7.54 1.63 8.9 3.06v-4.16c0-4.75-3.18-7.48-8.18-7.48-4.16 0-7.54 1.5-9.95 2.93l-2.08-3.77c2.28-1.43 6.76-3.7 12.48-3.7 9.23 0 12.87 5.13 12.87 12.34v22.3h-4.42l-.58-2.86c-1.76 2-4.62 3.7-9.17 3.7-7.4 0-12.87-4.68-12.87-11.24 0-6.44 5.4-11.12 13-11.12zm38.48-8c-7.73 0-10 6.12-10 13.33v16.2h-5.15v-33.8h5.1v5.64c1.2-3.38 5-6.5 10.1-6.5V311m23.1 25.75c6.5 0 11.6-5.14 11.6-13 0-7.74-4.8-13.2-11.4-13.2-6.36 0-11.56 4.8-11.56 13.2 0 7.08 4.43 13 11.45 13zm-16.4-43.23h5.2v18.66c1.03-1.76 4.87-6.3 11.95-6.3 9.56 0 16.1 7.4 16.1 17.8 0 10.34-6.9 17.68-16.5 17.68-7.34 0-10.92-4.94-11.76-6.17v5.3h-4.98v-47zm56.1 43.16c7.3 0 12.5-5.52 12.5-13.06 0-7.48-5.2-13.07-12.5-13.07s-12.3 5.66-12.3 13.07c0 7.6 5.16 13.06 12.37 13.06zm.1-30.8c10.2 0 17.6 7.6 17.6 17.74 0 10.14-7.5 17.74-17.64 17.74s-17.6-7.47-17.6-17.74c0-10.2 7.6-17.75 17.67-17.75z"/><g transform="translate(269 305)"><mask id="d" fill="#fff"><path d="M53.4 47.94H.66V.87H53.4z"/></mask><path fill="#1E1E1E" d="M15.8 6c-7.72 0-10 6.12-10 13.33v16.2H.67V1.73h5.07v5.63C6.9 4 10.68.86 15.8.86V6m21.08-.45c-6.57 0-11.45 5.4-11.45 13.13 0 7.87 5.07 13 11.58 13 7 0 11.5-5.72 11.5-13 0-8.2-5.1-13.13-11.6-13.13zM26.14 40.6c1.3.77 5.33 2.78 10.2 2.78 6.44 0 11.9-2.66 11.9-10.2v-3c-.78 1.25-4.3 6.18-11.7 6.18-9.68 0-16.32-7.34-16.32-17.68 0-10.4 6.7-17.8 16.25-17.8 7.03 0 10.86 4.48 11.97 6.3V1.72h4.94v29.12C53.4 43.64 46.16 48 36.4 48c-4.42 0-9.17-1.56-12.1-3.38l1.83-4.03z" mask="url(#d)"/></g><path fill="#1E1E1E" d="M181.65 110.72l-84.87-49 84.87-49 84.86 49-84.8 49zm-5.4 54.06H91.4v-93.7l84.85 49v44.7zm95.66 0h-84.8v-44.7l84.9-49v93.7zM181.7.28L80.6 58.6v116.97h202.1V58.6L181.65.28z"/><path fill="#BDEB18" d="M271.9 71.07l-84.86 49v44.7h84.87v-93.7"/><path fill="#FC3F4D" d="M91.4 164.78h84.85v-44.7l-84.86-49v93.7"/><path fill="#FFF" d="M96.78 61.72l84.87 49 84.86-49-84.8-49-84.8 49"/>
</g>

<g id="icon-applepay" transform="translate(200 50) scale(0.25)">
    <path d="M150.698 0H14.823c-.566 0-1.133 0-1.698.003-.477.004-.953.009-1.43.022-1.039.028-2.087.09-3.113.274a10.51 10.51 0 0 0-2.958.975 9.932 9.932 0 0 0-4.35 4.35 10.463 10.463 0 0 0-.975 2.96C.113 9.611.052 10.658.024 11.696c-.013.477-.019.953-.022 1.43C0 13.69 0 14.256 0 14.823v76.318c0 .567 0 1.132.002 1.699.003.476.009.953.022 1.43.028 1.036.09 2.084.275 3.11a10.46 10.46 0 0 0 .974 2.96 9.897 9.897 0 0 0 1.83 2.52 9.874 9.874 0 0 0 2.52 1.83c.947.483 1.917.79 2.96.977 1.025.183 2.073.245 3.112.273.477.011.953.018 1.43.02.565.004 1.132.004 1.698.004h135.875c.565 0 1.132 0 1.697-.004a79.71 79.71 0 0 0 1.431-.02c1.037-.028 2.085-.09 3.113-.273a10.478 10.478 0 0 0 2.958-.977 9.955 9.955 0 0 0 4.35-4.35c.483-.947.789-1.917.974-2.96.186-1.026.246-2.074.274-3.11.013-.477.02-.954.022-1.43.004-.567.004-1.132.004-1.699V14.824c0-.567 0-1.133-.004-1.699a63.067 63.067 0 0 0-.022-1.429c-.028-1.038-.088-2.085-.274-3.112a10.4 10.4 0 0 0-.974-2.96 9.941 9.941 0 0 0-4.35-4.35A10.52 10.52 0 0 0 156.939.3c-1.028-.185-2.076-.246-3.113-.274a71.413 71.413 0 0 0-1.431-.022C151.83 0 151.263 0 150.698 0z"/>
    <path fill="#FFF"
          d="M150.698 3.532l1.672.003c.452.003.905.008 1.36.02.792.022 1.719.065 2.583.22.75.135 1.38.34 1.984.648a6.392 6.392 0 0 1 2.804 2.807c.306.6.51 1.226.645 1.983.154.854.197 1.783.218 2.58.013.45.019.9.02 1.36.005.557.005 1.113.005 1.671v76.318c0 .558 0 1.114-.004 1.682-.002.45-.008.9-.02 1.35-.022.796-.065 1.725-.221 2.589a6.855 6.855 0 0 1-.645 1.975 6.397 6.397 0 0 1-2.808 2.807c-.6.306-1.228.512-1.971.645-.882.157-1.847.2-2.574.22-.457.01-.912.017-1.379.019-.555.004-1.113.004-1.669.004H14.801c-.55 0-1.1 0-1.66-.004a75.086 75.086 0 0 1-1.35-.018c-.744-.02-1.71-.064-2.584-.22a6.938 6.938 0 0 1-1.986-.65 6.337 6.337 0 0 1-1.622-1.18 6.355 6.355 0 0 1-1.178-1.623 6.935 6.935 0 0 1-.647-1.985c-.155-.863-.198-1.788-.22-2.578a66.017 66.017 0 0 1-.02-1.355l-.002-1.327V14.474l.002-1.325c.003-.453.008-.905.02-1.357.022-.792.065-1.717.222-2.587a6.924 6.924 0 0 1 .646-1.981c.304-.598.7-1.144 1.18-1.622a6.385 6.385 0 0 1 1.624-1.18 6.96 6.96 0 0 1 1.98-.647c.865-.155 1.792-.198 2.586-.22.452-.012.905-.017 1.354-.02l1.677-.003h135.875"/>
    <path d="M45.186 35.64c1.417-1.772 2.38-4.152 2.126-6.585-2.075.104-4.607 1.37-6.073 3.143-1.316 1.52-2.48 4-2.177 6.33 2.33.202 4.656-1.165 6.124-2.887M47.285 38.983c-3.382-.202-6.258 1.919-7.873 1.919-1.616 0-4.09-1.818-6.764-1.769-3.482.051-6.713 2.02-8.48 5.15-3.634 6.264-.959 15.556 2.575 20.657 1.717 2.524 3.785 5.303 6.51 5.203 2.575-.101 3.584-1.668 6.714-1.668 3.128 0 4.037 1.668 6.763 1.617 2.827-.05 4.594-2.525 6.31-5.051 1.969-2.877 2.775-5.655 2.825-5.808-.05-.05-5.45-2.122-5.5-8.333-.051-5.201 4.24-7.675 4.441-7.828-2.423-3.584-6.209-3.988-7.52-4.09M76.734 31.944c7.35 0 12.47 5.067 12.47 12.444 0 7.404-5.225 12.497-12.654 12.497h-8.14v12.943h-5.88V31.944h14.204zM68.41 51.949h6.747c5.12 0 8.034-2.756 8.034-7.534 0-4.778-2.914-7.509-8.008-7.509h-6.773V51.95zM90.74 61.979c0-4.831 3.702-7.798 10.266-8.166l7.56-.446v-2.126c0-3.072-2.074-4.91-5.539-4.91-3.282 0-5.33 1.575-5.828 4.043h-5.356c.315-4.988 4.568-8.664 11.394-8.664 6.695 0 10.974 3.545 10.974 9.084v19.034h-5.435v-4.542h-.13c-1.602 3.072-5.094 5.015-8.717 5.015-5.408 0-9.189-3.36-9.189-8.322zm17.826-2.494v-2.18l-6.8.42c-3.386.237-5.303 1.733-5.303 4.096 0 2.415 1.996 3.99 5.041 3.99 3.964 0 7.062-2.73 7.062-6.326zM119.342 79.989v-4.595c.419.105 1.364.105 1.837.105 2.625 0 4.043-1.102 4.909-3.938 0-.052.5-1.68.5-1.706l-9.977-27.646h6.143l6.984 22.474h.104l6.985-22.474h5.985l-10.344 29.063c-2.362 6.695-5.093 8.848-10.816 8.848-.473 0-1.891-.053-2.31-.131z"/>
</g>
</svg>
